<?xml version="1.0" standalone="no"?>
<!DOCTYPE svg PUBLIC "-//W3C//DTD SVG 20010904//EN"
 "http://www.w3.org/TR/2001/REC-SVG-20010904/DTD/svg10.dtd">
<svg version="1.0" xmlns="http://www.w3.org/2000/svg"
 width="110.000000pt" height="110.000000pt" viewBox="0 0 110.000000 110.000000"
 preserveAspectRatio="xMidYMid meet">
<metadata>
Created by potrace 1.11, written by Peter Selinger 2001-2013
</metadata>
<g transform="translate(0.000000,110.000000) scale(0.100000,-0.100000)"
fill="#000000" stroke="none">
<path d="M0 550 l0 -550 550 0 550 0 0 550 0 550 -550 0 -550 0 0 -550z m562
265 c-2 -25 -8 -43 -12 -40 -5 3 -12 0 -16 -6 -5 -9 0 -10 15 -6 25 6 47 -24
36 -51 -3 -9 -3 -13 1 -10 10 11 31 -15 27 -32 -3 -9 3 -22 11 -29 9 -8 16
-25 16 -40 0 -20 2 -23 10 -11 5 8 10 11 10 6 0 -5 -7 -18 -17 -28 -15 -17
-15 -18 0 -18 10 0 17 -7 17 -16 0 -8 -4 -12 -10 -9 -6 3 -10 -4 -9 -17 0 -13
3 -17 6 -10 9 22 25 12 21 -13 -3 -14 -1 -28 5 -32 6 -3 7 -1 3 5 -4 7 -3 12
2 12 6 0 12 -7 16 -15 3 -8 1 -15 -5 -15 -5 0 -2 -11 8 -24 13 -18 24 -23 41
-19 12 3 22 1 22 -6 0 -6 -7 -8 -15 -4 -13 4 -15 -2 -13 -31 1 -20 5 -36 9
-36 4 0 9 -9 12 -19 7 -27 65 -61 105 -61 17 0 32 -4 32 -10 0 -6 -52 -10
-135 -10 -83 0 -135 4 -135 10 0 6 14 10 30 10 20 0 33 6 37 17 7 17 -40 166
-60 191 -13 17 -187 17 -209 0 -13 -11 -41 -73 -72 -163 -5 -15 -9 -16 -15 -6
-7 10 -9 9 -14 -3 -8 -19 1 -25 49 -31 21 -2 42 -9 48 -15 7 -7 -24 -10 -97
-10 -101 0 -135 10 -84 25 28 9 67 44 67 62 0 7 5 13 10 13 6 0 10 8 10 18 0
10 7 28 16 40 8 12 13 22 10 22 -2 0 6 26 18 58 45 112 68 162 76 157 4 -2 7
9 8 25 0 16 14 58 31 94 17 35 31 68 31 73 0 15 31 53 43 53 8 0 11 -15 9 -45z
m218 -485 c0 -5 -5 -10 -11 -10 -5 0 -7 5 -4 10 3 6 8 10 11 10 2 0 4 -4 4
-10z"/>
<path d="M524 737 c-25 -12 -61 -67 -45 -67 15 0 14 -16 -1 -32 -7 -7 -14 -24
-16 -38 -1 -14 -12 -32 -24 -41 -14 -11 -17 -18 -8 -21 10 -3 9 -8 -4 -20 -9
-9 -16 -21 -16 -26 0 -13 143 -10 152 2 3 5 17 2 32 -7 24 -16 51 -24 31 -9
-16 11 -58 141 -51 158 3 8 2 13 -3 10 -15 -9 -40 66 -30 87 6 9 8 16 7 16 -2
-1 -13 -6 -24 -12z m-14 -41 c0 -3 -4 -8 -10 -11 -5 -3 -10 -1 -10 4 0 6 5 11
10 11 6 0 10 -2 10 -4z"/>
</g>
</svg>
